<?xml version="1.0" encoding="utf-8" ?>
<svg baseProfile="full" height="300mm" version="1.1" viewBox="0,0,200,300" width="200mm" xmlns="http://www.w3.org/2000/svg" xmlns:ev="http://www.w3.org/2001/xml-events" xmlns:xlink="http://www.w3.org/1999/xlink"><defs /><rect fill="#222222" height="300" width="200" x="0" y="0" /><text fill="#FFFFFF" style="font-size:12px; font-family:Arial; font-weight:bold;" x="10" y="20">Tianheg Runs</text><text fill="#FFFFFF" style="font-size:4px; font-family:Arial" x="10" y="280">ATHLETE</text><text fill="#FFFFFF" style="font-size:9px; font-family:Arial" x="10" y="290">Tianheg</text><text fill="#FFFFFF" style="font-size:4px; font-family:Arial" x="120" y="280">STATISTICS</text><text fill="#FFFFFF" style="font-size:3px; font-family:Arial" x="120" y="285">Number: 7</text><text fill="#FFFFFF" style="font-size:3px; font-family:Arial" x="120" y="290">Weekly: 1.8</text><text fill="#FFFFFF" style="font-size:3px; font-family:Arial" x="141" y="285">Total: 18.7 km</text><text fill="#FFFFFF" style="font-size:3px; font-family:Arial" x="141" y="290">Avg: 2.7 km</text><text fill="#FFFFFF" style="font-size:3px; font-family:Arial" x="167" y="285">Min: 2.0 km</text><text fill="#FFFFFF" style="font-size:3px; font-family:Arial" x="167" y="290">Max: 3.2 km</text><polyline fill="none" points="16.256281406618655,55.81036641285755 37.96482412144542,74.02633346570656 58.045226130634546,72.93337945872918 65.64321608096361,55.0817247685045 52.34673366881907,46.3380072650034 13.0,60.910851542139426 26.839195979759097,74.02633346570656 53.160804021172225,73.29769751778804 64.82914572954178,49.2525834122207 47.46231155842543,44.516395322047174 32.537688442505896,48.159617783734575 20.055276381783187,51.0741916524712 21.683417085558176,72.56906134192832 39.864321609027684,74.02633346570656 59.944723619148135,72.20474316785112 67.0,66.01132550649345 50.98994974885136,46.3380072650034 34.97989949770272,48.523939717328176 18.969849246554077,51.43851312948391 15.7135678390041,62.732450667303056 41.76381909567863,74.02633346570656 46.91959799081087,44.88071782537736 28.467336683534086,48.88826159294695 23.311557789333165,74.02633346570656 39.864321609027684,74.02633346570656 64.82914572954178,67.46860173111781 64.5577889457345,52.89579846826382 33.35175879392773,47.79529579449445 22.22613065317273,49.98122687917203 17.07035175897181,69.29019573121332 32.26633165962994,75.48360467818566 46.91959799081087,73.66201551980339" stroke="#4dd2ff" stroke-linecap="round" stroke-linejoin="round" stroke-width="0.5"><title>2021-03-15 2.1km</title></polyline><polyline fill="none" points="140.41176470555365,70.09312262700405 147.61176470573992,73.50485276780091 160.95294117555022,71.23036671860609 173.23529411759228,60.99514429131523 187.0,55.593198116868734 175.77647058758885,58.72064259531908 139.98823529388756,51.32849243259989 134.05882352869958,64.40689150139224 135.96470588166267,68.9558778249193 139.35294117592275,71.23036671860609 141.47058823518455,72.08329932007473 144.01176470518112,71.7989884975832 147.82352941203862,70.37743371608667 148.2470588227734,69.52450031542685 169.2117647053674,71.23036671860609 175.14117647055537,57.86770372511819 170.69411764666438,50.75986425229348 151.4235294116661,46.77946201141458 148.67058823537081,47.063776746741496 144.64705882314593,47.063776746741496 138.08235294092447,49.338293023523875 133.0,58.43632968259044 133.63529411703348,61.27945680380799 135.96470588166267,66.11276270623785 138.08235294092447,68.1029437558027 142.31764705851674,71.7989884975832 146.9764705877751,72.36761009832844 147.61176470573992,72.08329932007473 148.67058823537081,70.09312262700405 161.79999999981374,70.66174476162996 166.67058823537081,70.66174476162996 178.31764705758542,69.24018909200095 161.16470588184893,46.77946201141458 159.89411764685065,47.34809143678285 141.04705882351846,51.32849243259989 135.54117646999657,64.69120347965509 139.35294117592275,71.51467762992252 142.52941176388413,72.36761009832844 165.40000000037253,70.94605576281901 175.77647058758885,53.603003375115804 172.38823529332876,48.76966422086116 170.9058823529631,47.632406082120724 167.517647058703,46.49514723208267 163.07058823481202,47.34809143678285 158.20000000018626,48.76966422086116" stroke="#4dd2ff" stroke-linecap="round" stroke-linejoin="round" stroke-width="0.5"><title>2021-03-10 2.1km</title></polyline><polyline fill="none" points="13.0,112.20800568000413 13.252336448058486,113.22435934259556 19.560747663490474,132.19620687281713 27.63551401719451,132.53498835489154 30.663551401346922,131.85742533789016 35.457943924702704,130.84108041552827 43.78504672832787,128.46960707567632 47.065420558676124,128.46960707567632 61.7009345786646,126.09813113999553 63.71962616685778,111.53043630695902 32.68224298860878,108.4813715047203 27.63551401719451,109.15894183143973 22.58878504484892,110.51408184901811 19.813084110617638,112.20800568000413 16.028037382289767,119.3224713075906 17.037383176386356,124.06543541466817 20.317757008597255,128.46960707567632 21.83177569974214,129.82473501563072 25.86915887799114,131.85742533789016 31.92523364443332,131.85742533789016 35.457943924702704,131.1798621090129 45.299065419472754,129.1471711518243 47.82242990564555,128.46960707567632 55.89719626028091,128.13082495820709 67.0,120.00003824429587 64.72897196188569,113.22435934259556 62.962616821751,112.54679028689861 59.42990654055029,110.1752969243098 56.90654205530882,109.15894183143973 42.77570093329996,107.80380096589215 37.72897196095437,108.14258626149967 34.95327102672309,108.14258626149967 31.92523364443332,108.82015669508837 27.130841120146215,108.82015669508837 22.084112148731947,110.85286672157235 18.046728970482945,114.91828105435707 17.54205607343465,116.27341746957973 16.78504672832787,120.67760496842675 18.046728970482945,125.42056610947475 24.355140185914934,129.82473501563072 36.7196261677891,131.1798621090129 41.51401869021356,131.1798621090129 45.046728970482945,130.50229866919108 50.345794391818345,128.46960707567632 54.88785046618432,128.46960707567632 65.73831775598228,119.3224713075906 65.99065420404077,115.25706523819827 64.47663551289588,111.19165154127404 59.934579437598586,108.14258626149967 57.158878503367305,107.46501561650075 51.35514018498361,107.12623021518812 48.57943925075233,107.46501561650075 43.02803738228977,108.14258626149967 39.74766355007887,108.82015669508837 34.95327102672309,109.15894183143973 32.177570092491806,109.15894183143973 28.897196260280907,109.49772691517137 25.112149531953037,109.83651194581762 21.327102802693844,111.53043630695902 18.046728970482945,114.91828105435707 16.532710280269384,117.62855303916149 16.532710280269384,125.42056610947475 19.560747663490474,129.82473501563072 24.102803736925125,132.19620687281713 29.149532708339393,132.53498835489154 43.53271027840674,131.1798621090129 46.308411214500666,130.50229866919108 52.86915887705982,130.50229866919108 61.7009345786646,125.75934865116142 63.467289719730616,118.64490415877663 63.71962616685778,116.61220144154504 62.20560747478157,112.20800568000413 61.196261681616306,111.53043630695902 56.90654205530882,108.14258626149967 50.85046728886664,107.80380096589215 48.57943925075233,107.80380096589215 38.990654204040766,108.82015669508837 33.18691588751972,109.15894183143973 30.663551401346922,109.49772691517137 28.64485981222242,109.83651194581762 24.60747663397342,110.85286672157235 22.084112148731947,112.20800568000413 19.056074764579535,114.91828105435707 18.046728970482945,117.62855303916149 17.79439252242446,126.09813113999553 20.57009345665574,130.16351686883718 22.084112148731947,131.85742533789016 29.65420560631901,132.87376978457905 33.69158878456801,132.53498835489154 43.78504672832787,131.51864375034347 46.308411214500666,131.1798621090129 47.82242990564555,130.84108041552827 51.60747663397342,130.50229866919108 53.87850467208773,130.16351686883718 55.64485981222242,129.82473501563072 60.69158878456801,127.79204278741963 65.23364485893399,118.98368776030838 64.72897196188569,116.95098536089063 63.467289719730616,113.22435934259556 57.41121495235711,110.51408184901811 54.88785046618432,109.83651194581762 52.86915887705982,109.49772691517137 48.327102803625166,109.49772691517137 46.308411214500666,109.83651194581762 45.046728970482945,109.83651194581762 42.52336448431015,110.1752969243098 39.49532710202038,109.83651194581762 37.72897196095437,109.49772691517137" stroke="#4dd2ff" stroke-linecap="round" stroke-linejoin="round" stroke-width="0.5"><title>2021-03-09 2.0km</title></polyline><polyline fill="none" points="135.687782805413,128.03733722609468 141.5520361987874,125.08487083483487 143.01809954736382,135.58251024247147 152.0588235296309,130.66174830961972 161.58823529444635,130.33369710319676 169.40723981894553,130.98979946458712 185.28959276154637,122.13240028824657 185.77828054316342,119.1799255865626 186.2669683257118,113.60301759187132 181.62443438917398,109.3383132412564 179.42533936630934,109.01025870186277 177.7149321269244,108.68220411008224 161.58823529444635,107.69804002903402 154.01357466168702,106.71387548651546 145.95022624358535,107.69804002903402 141.30769230797887,109.66636773035862 138.13122171908617,115.89939326699823 138.37556561082602,122.13240028824657 141.30769230797887,127.05318222404458 148.14932126645,129.6775945383124 150.59276018105447,129.34954317938536 152.7918552039191,128.69344030553475 165.25339366402477,129.34954317938536 168.18552036304027,129.02149176760577 169.89592760242522,129.02149176760577 174.53846153989434,127.70928561058827 179.42533936630934,126.39707863260992 183.09049773868173,124.75681875646114 186.02262443490326,121.14824251597747 187.0,116.22744673024863 185.28959276154637,110.9785851710476 181.13574660755694,108.0260947747156 178.69230769202113,108.35414946801029 176.2488687792793,108.68220411008224 163.54298642557114,108.68220411008224 157.67873303219676,108.68220411008224 154.74660633597523,109.01025870186277 146.19457013625652,109.3383132412564 139.84162895940244,114.25912518426776 139.10859728511423,117.21160680940375 138.86425339244306,122.78850521310233 141.30769230797887,127.38123394316062 145.21719456929713,129.6775945383124 147.66063348483294,130.00564584648237 149.85972850676626,130.00564584648237 153.524886877276,130.33369710319676 155.72398190014064,129.6775945383124 157.19004524871707,129.34954317938536 158.90045248810202,129.02149176760577 165.74208144843578,128.36538879177533 168.4298642538488,128.69344030553475 170.87330316752195,128.69344030553475 175.51583710405976,128.03733722609468 180.40271493326873,127.70928561058827 185.0452488688752,120.82018982223235 185.28959276154637,114.9152325715404 180.15837104059756,108.35414946801029 178.44796380214393,108.35414946801029 170.14027149416506,108.0260947747156 167.4524886868894,108.0260947747156 159.63348416239023,108.0260947747156 156.94570135883987,108.35414946801029 150.837104071863,109.01025870186277 148.39366515912116,109.01025870186277 139.35294117592275,113.9310714143794 138.61990950256586,118.8518725859467 139.10859728511423,121.14824251597747 141.7963800895959,127.38123394316062 145.21719456929713,130.33369710319676 146.92760181054473,131.64590161922388 150.837104071863,132.3020035692025 152.54751131124794,132.6300544673577 154.50226244330406,132.6300544673577 165.49773755669594,131.3178505676333 167.4524886868894,131.3178505676333 171.60633484087884,130.33369710319676 173.56108597386628,129.34954317938536 175.27149321325123,128.69344030553475 176.73755656182766,128.36538879177533 179.42533936630934,127.70928561058827 182.60180995520204,124.10071444697678 183.33484163042158,121.80434774723835 183.09049773868173,117.21160680940375 182.11312217172235,115.24328618776053 180.40271493326873,111.96274771401659 178.69230769202113,111.63469358417206 177.47058823611587,110.9785851710476 158.16742081474513,107.69804002903402 152.0588235296309,108.0260947747156 149.12669683340937,108.35414946801029 143.7511312207207,109.66636773035862 140.3303167410195,112.94690979435109 139.35294117592275,119.83603143505752 139.5972850676626,122.13240028824657 141.5520361987874,126.39707863260992 144.97285067941993,129.02149176760577 151.3257918553427,130.00564584648237 153.2805429873988,130.00564584648237 155.23529411759228,130.00564584648237 160.8552036192268,130.33369710319676 162.32126696873456,130.33369710319676 164.76470588240772,130.33369710319676 167.2081447960809,130.00564584648237 171.60633484087884,129.6775945383124 173.31674208212644,129.02149176760577 174.78280543070287,128.69344030553475 181.38009049836546,127.05318222404458 182.35746606439352,124.428766627796 183.33484163042158,121.80434774723835 184.06787330377847,116.88355350191705 183.82352941296995,114.9152325715404 181.86877828184515,110.9785851710476 180.15837104059756,110.65053088776767 160.12217194586992,108.35414946801029 157.19004524871707,108.0260947747156 151.57013574708253,107.69804002903402 148.8823529407382,107.36998523329385 143.99547511246055,108.0260947747156 139.35294117592275,110.65053088776767 136.66515837050974,116.22744673024863 136.90950226131827,121.47629515687004 139.5972850676626,126.06902675959282 141.30769230797887,127.70928561058827 143.01809954736382,129.6775945383124 146.92760181054473,131.64590161922388 149.12669683340937,131.97395262029022 153.03619909472764,131.64590161922388 155.23529411759228,130.98979946458712 156.94570135883987,130.66174830961972 163.787330317311,130.98979946458712 165.9864253392443,130.98979946458712 167.94117647130042,130.66174830961972 169.40723981894553,130.66174830961972 172.58371040783823,130.00564584648237 174.53846153989434,130.00564584648237 178.69230769202113,128.36538879177533 182.11312217172235,125.41292286105454 183.33484163042158,121.47629515687004 183.57918552029878,118.8518725859467 180.64705882407725,111.63469358417206 179.42533936630934,110.65053088776767 177.95927601773292,109.66636773035862 161.09954751189798,104.41748975776136 154.74660633597523,104.74554501543753 152.0588235296309,105.07360022189096 149.85972850676626,105.4016553775873 145.21719456929713,105.72971048229374 141.30769230797887,107.69804002903402 139.5972850676626,109.99442216800526 137.39819004479796,115.24328618776053 137.39819004479796,117.86771327443421 137.6425339365378,120.49213707726449 138.86425339244306,125.08487083483487 142.2850678730756,128.69344030553475 152.0588235296309,132.3020035692025 156.94570135883987,131.3178505676333 171.60633484087884,128.36538879177533 173.31674208212644,128.69344030553475 185.77828054316342,124.75681875646114 186.2669683257118,122.78850521310233 187.0,117.53966006753035 185.77828054316342,112.61885581933893 183.33484163042158,110.32247655349784 181.86877828184515,109.99442216800526 180.89140271488577,109.01025870186277 179.42533936630934,108.68220411008224 168.4298642538488,106.71387548651546 165.25339366402477,106.38582053571008 160.6108597284183,105.72971048229374 157.92307692300528,105.4016553775873 154.99095022585243,105.72971048229374 149.3710407242179,106.05776553438045 147.41628959216177,106.05776553438045 145.21719456929713,106.71387548651546 138.61990950256586,111.30663940357044 136.66515837050974,111.96274771401659 136.42081447970122,111.96274771401659 133.0,109.99442216800526 133.48868778254837,109.66636773035862 134.71040723938495,110.32247655349784 136.66515837050974,111.96274771401659 137.39819004479796,113.9310714143794 138.13122171908617,116.55550014111213 138.37556561082602,117.86771327443421 138.61990950256586,120.49213707726449 139.10859728511423,121.80434774723835 139.5972850676626,123.11655759811401 140.57466063369066,125.08487083483487 141.30769230797887,126.39707863260992 141.7963800895959,127.38123394316062" stroke="#4dd2ff" stroke-linecap="round" stroke-linejoin="round" stroke-width="0.5"><title>2020-11-09 3.1km</title></polyline><polyline fill="none" points="15.149253730662167,174.95032069948502 15.149253730662167,182.524921156466 17.567164178937674,188.29602862289175 25.626865670084953,192.9850428083446 30.462686566635966,194.42781448550522 46.04477611929178,192.26365662994795 49.0,192.26365662994795 50.61194029916078,192.26365662994795 59.47761194035411,188.29602862289175 62.70149253774434,185.4104766943492 64.31343283690512,182.1642264619004 65.92537313513458,176.75379925454035 63.50746268685907,169.17917984630913 60.28358208946884,167.73639237810858 57.86567164119333,167.37569536920637 42.01492537278682,166.29360400652513 38.52238805964589,166.29360400652513 28.3134328359738,166.65430118329823 24.283582088537514,167.0149983051233 15.955223879776895,169.5398765730206 13.0,177.83588570985012 13.0,181.08214203524403 14.343283581547439,187.93533482868224 18.104477611370385,192.26365662994795 20.25373134203255,193.7064287592657 27.50746268592775,196.23127781483345 29.925373133271933,195.50989265250973 43.6268656719476,194.06712165102363 46.85074626933783,193.34573581209406 50.34328358154744,192.9850428083446 54.373134328983724,190.82088359910995 59.47761194035411,187.57464097836055 64.04477611929178,183.9676993775647 65.92537313513458,178.5572764002718 65.38805970177054,173.86823288863525 63.23880597110838,170.62196641298942 61.6268656719476,169.90057324338704 57.597014925442636,168.45778622454964 54.910447761416435,168.45778622454964 52.761194029822946,168.45778622454964 43.35820895433426,167.0149983051233 40.402985074557364,166.65430118329823 37.98507462721318,166.65430118329823 31.537313433364034,166.29360400652513 28.3134328359738,166.65430118329823 16.223880597390234,170.26126985624433 14.343283581547439,175.3110165228136 14.074626864865422,178.9179716592189 19.17910447716713,189.73880323255435 21.059701492078602,191.90296345716342 25.626865670084953,194.06712165102363 27.50746268592775,194.42781448550522 29.925373133271933,194.78850726410747 35.02985074557364,194.42781448550522 40.134328356944025,193.7064287592657 42.55223880521953,193.7064287592657 58.13432835880667,188.65672235982493 61.895522388629615,184.68908814829774 64.85074626840651,179.63936201133765 64.58208955265582,173.86823288863525 62.70149253774434,169.5398765730206 55.17910447716713,165.57220948208123 49.80597015004605,164.8508147324901 46.85074626933783,165.21151213604026 39.0597014920786,165.21151213604026 36.64179104473442,165.21151213604026 33.6865671640262,165.57220948208123 28.3134328359738,166.29360400652513 25.895522387698293,166.29360400652513 23.477611939422786,167.0149983051233 19.17910447716713,169.17917984630913 15.955223879776895,173.50753683946095 15.149253730662167,176.39310365589336 14.611940298229456,179.2786668636836 14.343283581547439,184.68908814829774 17.029850746504962,189.73880323255435 19.17910447716713,191.54227022780105 20.791044775396585,192.62434974731877 24.820895521901548,194.78850726410747 26.70149253681302,195.50989265250973 30.999999999068677,195.50989265250973 38.791044775396585,194.06712165102363 40.9402985079214,193.7064287592657 43.89552238676697,192.9850428083446 49.0,192.26365662994795 51.41791044827551,191.54227022780105 53.29850746225566,191.1815769423265 58.40298507548869,189.01741604087874 64.85074626840651,182.1642264619004 65.11940298601985,180.00005710148253 65.38805970177054,177.114494795911 64.58208955265582,171.7040557458531 61.089552238583565,168.81848306418397 57.86567164119333,166.65430118329823 57.86567164119333,165.93290677201003 58.13432835880667,165.57220948208123 58.13432835880667,165.21151213604026 57.597014925442636,164.8508147324901 47.388059701770544,163.76872218539938 44.16417910438031,163.76872218539938 37.98507462721318,163.76872218539938 35.02985074557364,164.1294197572861 32.34328358247876,164.49011727259494 23.477611939422786,164.8508147324901 16.223880597390234,169.17917984630913 15.149253730662167,175.67171228979714 15.417910446412861,178.5572764002718 16.761194029822946,184.68908814829774 19.447761193849146,189.73880323255435 23.746268657036126,192.62434974731877 25.895522387698293,192.9850428083446 28.3134328359738,192.9850428083446 29.119402985088527,193.34573581209406 39.86567164212465,193.34573581209406 42.82089552283287,192.9850428083446 45.238805970177054,192.9850428083446 50.074626865796745,192.26365662994795 52.22388059645891,191.54227022780105 54.373134328983724,191.1815769423265 58.40298507548869,189.73880323255435 63.77611940447241,185.77117088320665 65.92537313513458,184.3283937908709 67.0,180.3607521355152 66.73134328331798,177.83588570985012 65.38805970177054,173.50753683946095 64.04477611929178,171.7040557458531 60.82089552283287,169.17917984630913 59.20895522367209,168.45778622454964 57.597014925442636,168.0970893295016 55.98507462721318,167.73639237810858 44.70149253774434,165.93290677201003 42.01492537278682,165.21151213604026 33.95522388070822,165.21151213604026 30.999999999068677,164.8508147324901 22.40298507362604,165.93290677201003 18.3731343280524,169.90057324338704 17.029850746504962,172.06475207745098 15.6865671640262,177.47519028233364 15.6865671640262,180.3607521355152 16.492537312209606,186.492559091188 17.567164178937674,189.73880323255435 20.791044775396585,192.9850428083446 25.35820895526558,194.42781448550522 27.50746268592775,194.42781448550522 29.925373133271933,194.06712165102363 32.074626865796745,193.7064287592657 42.82089552283287,192.62434974731877 45.238805970177054,192.26365662994795 47.388059701770544,192.26365662994795 49.26865671761334,191.54227022780105 53.567164179868996,190.82088359910995 63.23880597110838,187.93533482868224 65.65671641845256,182.88561579585075 66.19402985088527,177.47519028233364 65.11940298601985,173.50753683946095 63.77611940447241,171.34335935814306 60.28358208946884,168.45778622454964 41.20895522367209,166.29360400652513 38.253731342963874,166.29360400652513 35.29850746318698,165.93290677201003 29.925373133271933,166.29360400652513 27.238805969245732,166.65430118329823 24.552238806150854,167.0149983051233 18.104477611370385,168.81848306418397 15.6865671640262,173.14684073301032 14.880597013048828,176.03240800159983 14.343283581547439,183.60700490674935 14.880597013048828,186.13186501478776 17.298507461324334,191.1815769423265 21.597014925442636,193.34573581209406 23.746268657036126,193.7064287592657 28.850746269337833,194.06712165102363 31.537313433364034,193.34573581209406 36.37313432712108,192.62434974731877 46.582089552655816,189.01741604087874 48.462686566635966,189.01741604087874 49.80597015004605,189.3781096653547 51.14925373159349,189.73880323255435 52.761194029822946,189.73880323255435 57.86567164119333,189.01741604087874 59.20895522367209,188.29602862289175 60.82089552283287,187.57464097836055 63.23880597110838,185.77117088320665 63.77611940447241,184.3283937908709 63.77611940447241,184.68908814829774 64.04477611929178,185.4104766943492 64.04477611929178,185.77117088320665 64.31343283690512,185.4104766943492 64.31343283690512,185.4104766943492 64.58208955265582,184.68908814829774 65.11940298601985,182.88561579585075 64.85074626840651,177.83588570985012 63.77611940447241,176.03240800159983 62.70149253774434,173.50753683946095 61.895522388629615,171.7040557458531 61.6268656719476,170.26126985624433 60.552238807082176,169.17917984630913 58.67164179123938,167.73639237810858" stroke="#4dd2ff" stroke-linecap="round" stroke-linejoin="round" stroke-width="0.5"><title>2020-11-08 3.2km</title></polyline><polyline fill="none" points="137.71844660211354,193.7256818173919 146.63106796052307,193.02180534345098 148.9902912620455,193.7256818173919 152.66019417438656,194.07761997147463 155.54368931986392,193.3737436074298 157.11650485545397,191.26211319561116 166.02912621479481,189.50241967127658 167.86407767049968,189.15048080217093 173.10679611749947,188.4466028972529 184.6407766994089,181.40781174460426 183.85436893254519,175.77676297491416 180.4466019421816,172.25735034048557 179.13592233136296,171.2015254762955 173.89320388343185,169.4418162703514 170.48543689399958,168.7379322021734 159.73786407895386,168.7379322021734 154.49514563195407,168.38599008624442 151.08737864065915,168.38599008624442 147.94174757320434,168.38599008624442 141.6504854373634,169.4418162703514 134.31067961268127,174.36899858200923 135.09708737861365,182.81557173538022 137.71844660211354,187.74272477230988 139.55339805874974,189.8543584868312 143.74757281597704,193.02180534345098 151.08737864065915,192.6698670242913 153.4466019421816,191.9659902190324 162.3592233005911,190.20629724673927 170.48543689399958,189.15048080217093 183.33009708765894,185.6310890777968 184.11650485452265,183.1675115970429 184.37864077743143,177.88840791373514 180.9708737861365,173.3131747082807 174.94174757320434,170.1457001187373 169.4368932051584,169.0898742643185 152.39805825334042,168.0340479153674 149.25242718402296,168.0340479153674 146.10679611656815,168.38599008624442 140.60194174852222,170.1457001187373 136.14563106745481,174.36899858200923 135.35922330152243,177.5364672294818 134.04854368884116,184.2233308472205 142.961165048182,194.07761997147463 156.06796116475016,194.07761997147463 160.00000000093132,192.6698670242913 169.17475728224963,190.20629724673927 171.53398058284074,189.15048080217093 186.2135922331363,180.00005087349564 183.33009708765894,169.0898742643185 179.66019417531788,166.2743362316396 175.2038834951818,166.2743362316396 154.49514563195407,168.0340479153674 151.61165048647672,168.0340479153674 148.72815534006804,168.38599008624442 142.961165048182,168.38599008624442 138.2427184469998,170.8495837454684 133.7864077668637,179.64811051846482 133.0,186.68690717266873 146.63106796052307,194.7814961152617 161.0485436897725,192.6698670242913 172.05825242679566,188.79854187741876 180.4466019421816,185.9830284975469 184.11650485452265,172.9612333078403 182.2815533997491,170.8495837454684 175.2038834951818,167.3301634073723 172.32038835063577,168.0340479153674 161.0485436897725,168.0340479153674 158.68932038825005,168.0340479153674 156.06796116475016,168.0340479153674 151.61165048647672,168.0340479153674 139.0291262138635,172.25735034048557 137.45631068013608,174.01705734524876 134.31067961268127,179.64811051846482 134.04854368884116,184.5752704872284 135.09708737861365,187.0388464271091 136.14563106745481,189.15048080217093 139.55339805874974,193.02180534345098 145.05825242679566,194.07761997147463 148.46601941809058,193.7256818173919 150.30097087379545,193.3737436074298 167.86407767049968,193.02180534345098 175.72815534006804,190.91017460171133 180.18446602020413,189.15048080217093 187.0,179.64811051846482 185.95145631209016,176.83258569263853 183.85436893254519,170.1457001187373 180.4466019421816,168.38599008624442 178.08737864065915,168.0340479153674 175.99029126297683,167.68210568837821 160.52427184488624,168.0340479153674 158.1650485433638,168.0340479153674 155.54368931986392,168.0340479153674 149.7766990289092,169.0898742643185 146.3689320385456,169.4418162703514 142.4368932042271,170.49764195946045 138.50485436897725,174.01705734524876 136.93203883431852,178.2403485449031 136.66990291327238,181.40781174460426 136.93203883431852,183.87139115249738 137.45631068013608,190.20629724673927 140.60194174852222,193.7256818173919 144.00970873888582,194.42955807084218 149.25242718402296,195.13343410519883 167.86407767049968,190.91017460171133 170.22330097202212,190.91017460171133 177.8252427186817,192.31792864901945 184.6407766994089,181.40781174460426 184.90291262231767,174.36899858200923 183.33009708765894,169.4418162703514 164.980582524091,164.866565895034 152.39805825334042,167.68210568837821 150.56310679670423,168.0340479153674 148.72815534006804,168.38599008624442 146.10679611656815,169.0898742643185 140.07766990270466,172.25735034048557 138.2427184469998,175.07288088905625 134.8349514566362,183.87139115249738 136.4077669903636,189.50241967127658 141.3883495144546,193.3737436074298 142.961165048182,193.3737436074298 144.27184466086328,193.02180534345098 163.93203883524984,192.31792864901945 172.58252427261323,192.31792864901945 179.66019417531788,194.7814961152617 183.59223301056772,190.91017460171133 186.47572815604508,177.88840791373514 184.6407766994089,172.25735034048557 182.80582524370402,170.1457001187373 179.13592233136296,167.3301634073723 177.30097087379545,166.9782210700214 174.67961165122688,166.6262786788866 157.6407766994089,167.68210568837821 155.019417475909,167.68210568837821 152.13592233043164,168.7379322021734 147.15533980634063,169.4418162703514 145.58252427261323,169.4418162703514 144.27184466086328,170.1457001187373 142.961165048182,170.1457001187373 141.6504854373634,170.1457001187373 141.12621359340847,170.49764195946045 140.60194174852222,170.49764195946045 138.76699029188603,171.55346715310588 137.98058252502233,173.3131747082807 136.66990291327238,175.4248219593428 135.35922330152243,178.94422964099795 135.09708737861365,180.35199117357843 134.5728155337274,182.4636318203993 134.31067961268127,183.87139115249738" stroke="#4dd2ff" stroke-linecap="round" stroke-linejoin="round" stroke-width="0.5"><title>2020-11-06 3.1km</title></polyline><polyline fill="none" points="14.33004926238209,245.00002282881178 18.852216749452055,250.71426494629122 25.768472906202078,254.99993715179153 27.896551724523306,254.64279810804874 37.20689655281603,252.14282324071974 38.80295566562563,251.4285442046821 51.57142857275903,250.357125232229 53.699507389217615,249.6428456378635 55.56157635524869,249.2857057559304 59.28571428544819,247.50000551366247 61.14778325241059,246.42858469835483 64.33990147802979,242.8571783506777 64.87192118354142,241.07147308182903 65.4039408871904,238.57148336083628 65.4039408871904,232.85721086757258 65.4039408871904,231.78578318399377 65.66995073948056,231.07149778213352 61.14778325241059,226.7857806805987 57.95566502492875,225.35720652574673 55.56157635524869,225.35720652574673 52.36945812776685,225.71435014763847 48.645320197567344,226.42863722494803 46.78325123246759,227.142924078973 44.38916256278753,227.50006742263213 42.26108374539763,228.92864023614675 36.40886699501425,228.92864023614675 33.74876847397536,228.92864023614675 31.088669951073825,228.92864023614675 16.458128080703318,234.28578033135273 14.862068966962397,237.1429165787995 13.0,241.78575535747223 14.33004926238209,247.14286529738456 19.38423645403236,252.14282324071974 22.310344828292727,253.21424137591384 24.172413795255125,254.2856590084266 24.438423645682633,253.92851985362358 24.172413795255125,253.92851985362358 24.172413795255125,253.57138064294122 24.172413795255125,253.57138064294122 23.90640394203365,253.92851985362358 23.640394088812172,253.92851985362358 23.90640394203365,253.92851985362358 24.172413795255125,254.2856590084266 24.172413795255125,253.92851985362358 26.30049261264503,253.21424137591384 28.428571430034935,252.14282324071974 32.418719213455915,251.0714046030771 36.94088669959456,249.99998546321876 41.19704433530569,249.2857057559304 43.325123152695596,248.57142582722008 45.71921182330698,248.2142857783474 51.57142857275903,247.8571456745267 57.15763546898961,246.78572502546012 64.07389162667096,241.07147308182903 64.87192118354142,235.00006472831592 59.8177339900285,227.50006742263213 57.15763546898961,226.42863722494803 46.78325123246759,225.71435014763847 44.12315270956606,226.7857806805987 29.492610838264227,228.92864023614675 26.56650246400386,228.92864023614675 23.640394088812172,228.92864023614675 15.128078817389905,234.6429225585889 13.79802955687046,241.07147308182903 15.660098522901535,246.78572502546012 17.25615763757378,249.2857057559304 20.71428571548313,252.499962675618 26.832512316294014,253.92851985362358 29.492610838264227,253.92851985362358 32.15270936023444,253.57138064294122 40.13300492614508,251.78568375017494 41.19704433530569,250.71426494629122 48.11330049298704,250.357125232229 51.0394088672474,250.71426494629122 67.0,239.28576641879044 65.66995073948056,233.21435331762768 62.477832512930036,229.2857833004091 58.75369458179921,227.50006742263213 47.58128078933805,227.142924078973 44.92118226643652,227.85721070948057 39.33497537020594,227.85721070948057 36.674876848235726,227.85721070948057 30.822660099714994,228.21435394044966 28.16256157681346,228.21435394044966 25.236453202553093,228.92864023614675 18.320197044871747,231.78578318399377 14.064039410091937,240.71433186111972 14.33004926238209,245.00002282881178 15.128078817389905,251.0714046030771 51.0394088672474,251.0714046030771 60.083743842318654,251.4285442046821 65.93596059177071,241.78575535747223 65.4039408871904,234.28578033135273 59.01970443408936,226.071493714815 39.866995074786246,227.50006742263213 31.886699507012963,227.85721070948057 28.960591134615242,228.57149711670354 26.034482759423554,228.92864023614675 18.852216749452055,232.14292580191977 17.25615763757378,234.28578033135273 14.33004926238209,240.0000492511317 17.522167488001287,251.4285442046821 26.30049261264503,252.8571020537056 29.226600985974073,251.78568375017494 37.73891625646502,251.4285442046821 44.38916256278753,250.71426494629122 46.78325123246759,250.71426494629122 54.76354679837823,250.357125232229 66.73399014770985,241.78575535747223 61.679802956059575,227.85721070948057 55.82758620753884,225.71435014763847 49.97536945901811,227.142924078973 38.270935961045325,227.85721070948057 35.876847291365266,228.21435394044966 33.216748770326376,228.57149711670354 28.960591134615242,229.64292630879208 26.30049261264503,229.64292630879208 22.57635468058288,229.64292630879208 21.512315271422267,231.42864051065408 20.182266010902822,232.14292580191977 18.852216749452055,233.21435331762768 16.192118227481842,240.35719058453105 15.926108375191689,243.57146006682888 16.192118227481842,245.00002282881178 16.724137931130826,245.714303875342 16.990147784352303,248.2142857783474 18.852216749452055,249.99998546321876 19.91625615861267,251.0714046030771 20.448275862261653,251.4285442046821 21.246305420063436,251.78568375017494 22.310344828292727,251.78568375017494 24.172413795255125,252.499962675618 27.630541873164475,253.21424137591384 29.226600985974073,252.8571020537056 31.620689656585455,252.14282324071974 37.20689655281603,251.0714046030771 40.39901477843523,250.71426494629122 43.85714285634458,249.2857057559304 66.20197044406086,237.85720008099452 57.42364532034844,225.71435014763847 51.57142857275903,225.00006284820847 48.645320197567344,225.35720652574673 40.93103448394686,226.7857806805987 26.56650246400386,228.21435394044966 23.37438423745334,228.92864023614675 18.852216749452055,232.50006836280227 16.192118227481842,237.50005835690536 15.660098522901535,243.928600840969 16.192118227481842,245.714303875342 16.990147784352303,247.8571456745267 24.97044335026294,253.21424137591384 27.364532019943,253.57138064294122 33.74876847397536,253.57138064294122 40.13300492614508,252.8571020537056 56.093596059829,249.99998546321876 65.66995073948056,244.2857415592298 66.4679802954197,241.78575535747223 65.4039408871904,232.85721086757258 59.8177339900285,228.57149711670354 57.42364532034844,227.50006742263213 51.0394088672474,227.142924078973 48.11330049298704,227.85721070948057 35.078817734494805,228.57149711670354 31.620689656585455,228.92864023614675 22.842364531941712,230.00006926059723 19.118226601742208,230.71435499680229 18.320197044871747,232.14292580191977 17.25615763757378,234.28578033135273 16.724137931130826,235.00006472831592 16.458128080703318,236.7857747427188 14.596059113740921,243.21431923634373 15.926108375191689,243.928600840969 17.788177341222763,247.50000551366247 19.650246306322515,250.357125232229 21.512315271422267,252.499962675618 23.90640394203365,254.2856590084266 26.832512316294014,254.64279810804874 27.896551724523306,253.92851985362358 28.960591134615242,253.92851985362358 29.75862069055438,253.57138064294122 31.886699507012963,253.57138064294122 32.418719213455915,253.21424137591384 34.014778326265514,253.57138064294122 34.8128078840673,253.21424137591384 35.876847291365266,253.21424137591384" stroke="#4dd2ff" stroke-linecap="round" stroke-linejoin="round" stroke-width="0.5"><title>2020-11-05 3.2km</title></polyline></svg>