<?xml version="1.0" encoding="utf-8" ?>
<svg baseProfile="full" height="200mm" version="1.1" viewBox="0,0,200,200" width="200mm" xmlns="http://www.w3.org/2000/svg" xmlns:ev="http://www.w3.org/2001/xml-events" xmlns:xlink="http://www.w3.org/1999/xlink"><defs /><rect fill="#1a1a1a" height="200" width="200" x="0" y="0" /><text alignment-baseline="middle" fill="#e1ed5e" style="dominant-baseline: central; font-size:9.0px; font-family:Arial;" text-anchor="middle" x="100.0" y="100.0">2021</text><line stroke="#e1ed5e" stroke-width="0.3" x1="100.0" x2="100.0" y1="15.0" y2="10.0" /><path d="M 100.0 14.0 a86.0,86.0 0 0,1 42.46469731375804,11.215312516191453" fill="none" id="id13" stroke="none" /><text fill="#e1ed5e" style="font-size:6.75px; font-family:Arial;" text-anchor="middle"><textPath startOffset="22.20632615414155" xlink:href="#id13">January</textPath></text><line stroke="#e1ed5e" stroke-width="0.3" x1="143.23703022742887" x2="145.7803849466894" y1="26.81831364943548" y2="22.513508569990506" /><path d="M 143.74570117128098 25.957352633546492 a86.0,86.0 0 0,1 28.547481713284135,27.462654790039103" fill="none" id="id14" stroke="none" /><text fill="#e1ed5e" style="font-size:6.75px; font-family:Arial;" text-anchor="middle"><textPath startOffset="19.985693538727396" xlink:href="#id14">February</textPath></text><path d="M 111.2981086023043 82.29822771554956 l 6.230300532352112 -9.761577372773166 a32.58037294425633,32.58037294425633 0 0,0 0.4701393959216841,0.3057917408855585 l -6.397406954058076 9.65288670772808" fill="#ff0000" stroke="none" /><path d="M 116.15771136456269 86.58626213691792 l 14.19929042924266 -11.78790457152012 a39.45466181974753,39.45466181974753 0 0,0 0.42930712954417377,0.5262797789747684 l -14.400096050863244 11.54174062293725" fill="#ff750a" stroke="none" /><path d="M 116.38621287248628 86.86637796730983 l 14.47120125523923 -11.598731758478971 a39.54578777444588,39.54578777444588 0 0,0 0.4211549554977107,0.5348240245267417 l -14.668710291330903 11.347915339999192" fill="#ff760a" stroke="none" /><path d="M 116.60985879189232 87.15038557335679 l 14.368338177407344 -11.115543355577657 a39.16602449822382,39.16602449822382 0 0,0 0.4079310420730163,0.53678943422882 l -14.557545159704473 10.866569145467803" fill="#ff700a" stroke="none" /><path d="M 116.82858285166822 87.43820079747576 l 15.12484545171384 -11.290033938586054 a39.87394543471645,39.87394543471645 0 0,0 0.4058358536185956,0.5535596482482588 l -15.316943917846062 11.028011846666303" fill="#ff7c0b" stroke="none" /><path d="M 117.04232023915458 87.72973835380427 l 14.407194708151412 -10.37300356852548 a38.752928276519015,38.752928276519015 0 0,0 0.38510700366451334,0.5447065457986252 l -14.583614331619808 10.12347052239506" fill="#ff6909" stroke="none" /><line stroke="#e1ed5e" stroke-width="0.3" x1="172.23445277983987" x2="176.4835382374775" y1="55.19839476539836" y2="52.563006222186495" /><path d="M 173.08426987136738 54.67131705675599 a86.0,86.0 0 0,1 12.851231095245387,41.99856678651699" fill="none" id="id15" stroke="none" /><text fill="#e1ed5e" style="font-size:6.75px; font-family:Arial;" text-anchor="middle"><textPath startOffset="22.20632615414155" xlink:href="#id15">March</textPath></text><path d="M 118.89224826269711 90.83032412892265 l 15.449811497589081 -7.498830299719484 a38.173500842141266,38.173500842141266 0 0,0 0.2818327865689916,0.5936117248358785 l -15.57660247799983 7.231776159243065" fill="#ff6008" stroke="none" /><path d="M 119.04729006885535 91.15688171328212 l 16.968822860879825 -7.878144723090286 a39.70845032497008,39.70845032497008 0 0,0 0.2824928797869791,0.6224356147603995 l -17.10191805763015 7.5848870994878235" fill="#ff790b" stroke="none" /><path d="M 119.196687751892 91.48605970444005 l 40.03327146076907 -17.75519232578749 a64.7939456817644,64.7939456817644 0 0,0 0.4434043781151554,1.0234384384881166 l -40.33296654872691 17.06345474271277" fill="#30ff38" stroke="none" /><path d="M 119.34039704204932 91.81776055985345 l 21.889533398705517 -9.260689070234061 a44.76787820712225,44.76787820712225 0 0,0 0.2941426817477568,0.7122898350404253 l -22.045697767339473 8.882524664740332" fill="#ffc912" stroke="none" /><path d="M 119.97218684219823 93.5106431181261 l 22.67189838932847 -7.366546337683925 a44.8386447081473,44.8386447081473 0 0,0 0.23218841558460762,0.7361007286094621 l -22.795342288681283 6.975195442648044" fill="#ffca12" stroke="none" /><path d="M 120.08093135843002 93.85539295169968 l 22.802267690550046 -6.977314561147857 a44.84588707338665,44.84588707338665 0 0,0 0.21951870142565177,0.7401079326152132 l -22.9189922890874 6.583777241786113" fill="#ffca12" stroke="none" /><path d="M 120.67395015179393 96.31383870115 l 51.67885188623739 -9.214329259448236 a73.4938815099549,73.4938815099549 0 0,0 0.21134089019235605,1.2473458972371332 l -51.82980463794996 8.323397573895265" fill="#3dffaf" stroke="none" /><path d="M 120.78858239683441 97.02765380044208 l 62.36574719050324 -8.917038598673738 a84.0,84.0 0 0,0 0.19233600376865523,1.4331266317413425 l -62.50999919332973 7.84219362486773" fill="#4dd2ff" stroke="none" /><path d="M 120.94382443527127 98.46500227214037 l 61.407983791789995 -4.500663949135036 a82.57269239976263,82.57269239976263 0 0,0 0.09169268504460265,1.4184452534969836 l -61.47635706783901 3.442959631385017" fill="#4be2ff" stroke="none" /><line stroke="#e1ed5e" stroke-width="0.3" x1="184.98032266829074" x2="189.97916517819016" y1="98.17113171792111" y2="98.06355123074" /><path d="M 185.9800911702706 98.14961562048488 a86.0,86.0 0 0,1 -9.607161424134198,41.387399972396054" fill="none" id="id16" stroke="none" /><text fill="#e1ed5e" style="font-size:6.75px; font-family:Arial;" text-anchor="middle"><textPath startOffset="21.466115282336823" xlink:href="#id16">April</textPath></text><path d="M 120.99513854157772 99.54816195383933 l 48.732304110142415 -1.0487717921188602 a69.74358815429315,69.74358815429315 0 0,0 0.01549965854766972,1.2004656357400376 l -48.7431367758078 0.20976989831836004" fill="#38ff7e" stroke="none" /><path d="M 120.95626037817324 101.35467743843564 l 50.99772089236462 3.296650292457689 a72.10416264225728,72.10416264225728 0 0,0 -0.09072571960165429,1.2378803620447507 l -50.93341861409863 -4.17400379099921" fill="#3bff9d" stroke="none" /><path d="M 120.89721153311464 102.0752229133903 l 48.55728298168405 4.822039825547416 a69.79612483222934,69.79612483222934 0 0,0 -0.12901547286344878,1.1945230468043557 l -48.46708520731955 -5.657159194236563" fill="#38ff7e" stroke="none" /><path d="M 118.97047184881838 109.00673069616215 l 47.99891185575323 22.788746439141516 a74.13400515304538,74.13400515304538 0 0,0 -0.557229108929343,1.1480570102046448 l -47.59952949020917 -23.611592405311438" fill="#3effb7" stroke="none" /><line stroke="#e1ed5e" stroke-width="0.3" x1="174.80103733775053" x2="179.2010983576182" y1="140.37084112569926" y2="142.7455964860345" /><path d="M 175.68104954172406 140.8457921977663 a86.0,86.0 0 0,1 -30.038265399797805,32.042727171017184" fill="none" id="id17" stroke="none" /><text fill="#e1ed5e" style="font-size:6.75px; font-family:Arial;" text-anchor="middle"><textPath startOffset="22.206326154141568" xlink:href="#id17">May</textPath></text><path d="M 118.48025628344425 109.97397251340804 l 54.44263126904885 29.383213062990038 a82.86576847823588,82.86576847823588 0 0,0 -0.6882735653111343,1.2494164436110158 l -53.9287812942862 -30.316000024998857" fill="#4bdeff" stroke="none" /><path d="M 118.30583269289576 110.29060199501025 l 52.51727995281946 29.522526230928055 a81.24652893485771,81.24652893485771 0 0,0 -0.6958107642134331,1.213204717469978 l -52.00131719245365 -30.422150794256346" fill="#49f1ff" stroke="none" /><path d="M 117.94076556474637 110.91462005526583 l 43.333096217462526 26.36254731298957 a71.72219562106395,71.72219562106395 0 0,0 -0.6507435422125845,1.0492057913013504 l -42.87288803558198 -27.104549435656192" fill="#3bff98" stroke="none" /><line stroke="#e1ed5e" stroke-width="0.3" x1="143.8653032363475" x2="146.44561519142675" y1="172.8068346515853" y2="177.08958963109032" /><path d="M 144.38136562736335 173.6633856474863 a86.0,86.0 0 0,1 -40.68145358897372,12.25698825130547" fill="none" id="id18" stroke="none" /><text fill="#e1ed5e" style="font-size:6.75px; font-family:Arial;" text-anchor="middle"><textPath startOffset="21.466115282336833" xlink:href="#id18">June</textPath></text><line stroke="#e1ed5e" stroke-width="0.3" x1="102.19456741930631" x2="102.32365962044197" y1="184.97166512339345" y2="189.96999836594603" /><path d="M 102.22038585953345 185.97133177190398 a86.0,86.0 0 0,1 -42.740103519485714,-10.115201625700543" fill="none" id="id19" stroke="none" /><text fill="#e1ed5e" style="font-size:6.75px; font-family:Arial;" text-anchor="middle"><textPath startOffset="22.20632615414155" xlink:href="#id19">July</textPath></text><line stroke="#e1ed5e" stroke-width="0.3" x1="58.666819895761336" x2="56.23545636021788" y1="174.27360380694188" y2="178.64263932499728" /><path d="M 58.180547188652646 175.14741091055294 a86.0,86.0 0 0,1 -31.652253787137756,-30.449443065178592" fill="none" id="id20" stroke="none" /><text fill="#e1ed5e" style="font-size:6.75px; font-family:Arial;" text-anchor="middle"><textPath startOffset="22.20632615414155" xlink:href="#id20">August</textPath></text><line stroke="#e1ed5e" stroke-width="0.3" x1="26.63291911575756" x2="22.317208475507996" y1="142.92168965132927" y2="145.44649492493687" /><path d="M 25.769776987707644 143.4266507060508 a86.0,86.0 0 0,1 -11.730757126820373,-40.83630448921669" fill="none" id="id21" stroke="none" /><text fill="#e1ed5e" style="font-size:6.75px; font-family:Arial;" text-anchor="middle"><textPath startOffset="21.46611528233685" xlink:href="#id21">September</textPath></text><line stroke="#e1ed5e" stroke-width="0.3" x1="15.007084014347285" x2="10.007500721073583" y1="101.09737516637583" y2="101.16192664675087" /><path d="M 14.007167355692545 101.11028546245083 a86.0,86.0 0 0,1 10.666146001902534,-42.60595125391555" fill="none" id="id22" stroke="none" /><text fill="#e1ed5e" style="font-size:6.75px; font-family:Arial;" text-anchor="middle"><textPath startOffset="22.20632615414155" xlink:href="#id22">October</textPath></text><line stroke="#e1ed5e" stroke-width="0.3" x1="26.266209847984243" x2="21.928928074336255" y1="57.711370442889674" y2="55.22380399835377" /><path d="M 25.398753493254645 57.213857153982495 a86.0,86.0 0 0,1 29.58750427330803,-30.492523968695096" fill="none" id="id23" stroke="none" /><text fill="#e1ed5e" style="font-size:6.75px; font-family:Arial;" text-anchor="middle"><textPath startOffset="21.46611528233685" xlink:href="#id23">November</textPath></text><line stroke="#e1ed5e" stroke-width="0.3" x1="56.762969772571076" x2="54.21961505331055" y1="26.818313649435495" y2="22.513508569990535" /><path d="M 56.25429882871897 25.957352633546506 a86.0,86.0 0 0,1 42.265352541879196,-11.944610805530505" fill="none" id="id24" stroke="none" /><text fill="#e1ed5e" style="font-size:6.75px; font-family:Arial;" text-anchor="middle"><textPath startOffset="22.20632615414155" xlink:href="#id24">December</textPath></text></svg>