<?xml version="1.0" encoding="utf-8" ?>
<svg baseProfile="full" height="200mm" version="1.1" viewBox="0,0,200,200" width="200mm" xmlns="http://www.w3.org/2000/svg" xmlns:ev="http://www.w3.org/2001/xml-events" xmlns:xlink="http://www.w3.org/1999/xlink"><defs /><rect fill="#1a1a1a" height="200" width="200" x="0" y="0" /><text alignment-baseline="middle" fill="#e1ed5e" style="dominant-baseline: central; font-size:9.0px; font-family:Arial;" text-anchor="middle" x="100.0" y="100.0">2021</text><line stroke="#e1ed5e" stroke-width="0.3" x1="100.0" x2="100.0" y1="15.0" y2="10.0" /><path d="M 100.0 14.0 a86.0,86.0 0 0,1 42.46469731375804,11.215312516191453" fill="none" id="id13" stroke="none" /><text fill="#e1ed5e" style="font-size:6.75px; font-family:Arial;" text-anchor="middle"><textPath startOffset="22.20632615414155" xlink:href="#id13">January</textPath></text><line stroke="#e1ed5e" stroke-width="0.3" x1="143.23703022742887" x2="145.7803849466894" y1="26.81831364943548" y2="22.513508569990506" /><path d="M 143.74570117128098 25.957352633546492 a86.0,86.0 0 0,1 28.547481713284135,27.462654790039103" fill="none" id="id14" stroke="none" /><text fill="#e1ed5e" style="font-size:6.75px; font-family:Arial;" text-anchor="middle"><textPath startOffset="19.985693538727396" xlink:href="#id14">February</textPath></text><path d="M 111.2981086023043 82.29822771554956 l 5.94295793727809 -9.311371646782359 a32.046284035310656,32.046284035310656 0 0,0 0.462432417322949,0.3007789076213844 l -6.102357380385319 9.207693815001447" fill="#ff0000" stroke="none" /><path d="M 116.15771136456269 86.58626213691792 l 13.544416568991176 -11.244244266134052 a38.60352945607361,38.60352945607361 0 0,0 0.4200459377088375,0.5149266528402952 l -13.735960998776422 11.009433443685657" fill="#ff6e0a" stroke="none" /><path d="M 116.38621287248628 86.86637796730983 l 13.803786818178512 -11.063796137678255 a38.69045266514747,38.69045266514747 0 0,0 0.4120458027872676,0.52325632563342 l -13.992186701559744 10.824547418091797" fill="#ff700a" stroke="none" /><path d="M 116.60985879189232 87.15038557335679 l 13.705667804227339 -10.602892471906133 a38.3282041403787,38.3282041403787 0 0,0 0.39920478159536055,0.5253066983209806 l -13.886148526046812 10.365400997704118" fill="#ff6a09" stroke="none" /><path d="M 116.82858285166822 87.43820079747576 l 14.42728482528476 -10.76933551745189 a39.00347563436968,39.00347563436968 0 0,0 0.3969762373799335,0.5414751416553606 l -14.610523675178321 10.519397932125035" fill="#ff750a" stroke="none" /><path d="M 117.04232023915458 87.72973835380427 l 13.742732264697818 -9.894598755047417 a37.9341599916427,37.9341599916427 0 0,0 0.37697049850458453,0.5331980362717549 l -13.911015383006285 9.65657421844387" fill="#ff6409" stroke="none" /><line stroke="#e1ed5e" stroke-width="0.3" x1="172.23445277983987" x2="176.4835382374775" y1="55.19839476539836" y2="52.563006222186495" /><path d="M 173.08426987136738 54.67131705675599 a86.0,86.0 0 0,1 12.851231095245387,41.99856678651699" fill="none" id="id15" stroke="none" /><text fill="#e1ed5e" style="font-size:6.75px; font-family:Arial;" text-anchor="middle"><textPath startOffset="22.20632615414155" xlink:href="#id15">March</textPath></text><path d="M 119.04729006885535 91.15688171328212 l 16.186217660556398 -7.514803253871168 a38.845613189221055,38.845613189221055 0 0,0 0.27635450507655596,0.6089105197583837 l -16.3131744825963 7.235070725270721" fill="#ff720a" stroke="none" /><path d="M 119.196687751892 91.48605970444005 l 38.1869296910411 -16.936319622546637 a62.77416093215488,62.77416093215488 0 0,0 0.4295823860848238,0.9915353751930492 l -38.47280278696861 16.276485102766987" fill="#3dff2e" stroke="none" /><path d="M 119.34039704204932 91.81776055985345 l 20.879984132328644 -8.83358440396685 a43.67169933613937,43.67169933613937 0 0,0 0.286940352629223,0.6948488237962744 l -21.028946171844066 8.472861009717272" fill="#ffbe11" stroke="none" /><path d="M 119.97218684219823 93.5106431181261 l 21.626266307117394 -7.026799879160521 a43.73920207325075,43.73920207325075 0 0,0 0.22649516046763457,0.718051554066401 l -21.744016951353235 6.653498158667701" fill="#ffbf11" stroke="none" /><path d="M 120.08093135843002 93.85539295169968 l 21.750622952426706 -6.655519543036414 a43.74611041928644,43.74611041928644 0 0,0 0.21413534168585538,0.721957919784101 l -21.861964191224263 6.280132236505783" fill="#ffbf11" stroke="none" /><path d="M 120.67395015179393 96.31383870115 l 49.29541382665612 -8.789362716096472 a71.07285413571296,71.07285413571296 0 0,0 0.2043789217952583,1.2062559656630274 l -49.439404609971604 7.939520962117606" fill="#3aff91" stroke="none" /><path d="M 120.78858239683441 97.02765380044208 l 59.48942757343268 -8.505783154732768 a81.09442852785962,81.09442852785962 0 0,0 0.18568307513037322,1.383554585822863 l -59.62702664762089 7.480510226845241" fill="#49f2ff" stroke="none" /><path d="M 120.94382443527127 98.46500227214037 l 58.575836397074376 -4.2930925082414255 a79.7329486140543,79.7329486140543 0 0,0 0.0885392971026216,1.3696637377570764 l -58.64105628518141 3.284169706231314" fill="#47fffc" stroke="none" /><line stroke="#e1ed5e" stroke-width="0.3" x1="184.98032266829074" x2="189.97916517819016" y1="98.17113171792111" y2="98.06355123074" /><path d="M 185.9800911702706 98.14961562048488 a86.0,86.0 0 0,1 -9.607161424134198,41.387399972396054" fill="none" id="id16" stroke="none" /><text fill="#e1ed5e" style="font-size:6.75px; font-family:Arial;" text-anchor="middle"><textPath startOffset="21.466115282336823" xlink:href="#id16">April</textPath></text><path d="M 120.99513854157772 99.54816195383933 l 46.48476137055353 -1.000402246087652 a67.49552499253323,67.49552499253323 0 0,0 0.015000054034581177,1.1617707156178392 l -46.49509443170582 0.2000952724093502" fill="#35ff61" stroke="none" /><path d="M 120.95626037817324 101.35467743843564 l 48.64569671825301 3.1446081806578747 a69.74722935525784,69.74722935525784 0 0,0 -0.0877600868187448,1.1974166589281667 l -48.584360072769925 -3.981497976082812" fill="#38ff80" stroke="none" /><path d="M 120.89721153311464 102.0752229133903 l 46.31781224841059 4.599646470711935 a67.54563866931623,67.54563866931623 0 0,0 -0.12485553508497184,1.1560071894472912 l -46.23177441182457 -5.396249982044018" fill="#35ff62" stroke="none" /><path d="M 118.97047184881838 109.00673069616215 l 45.785193300485645 21.73772530359532 a71.6834551598192,71.6834551598192 0 0,0 -0.5388095215039341,1.1101072044067222 l -45.404230522367 -22.522621463967315" fill="#3bff99" stroke="none" /><line stroke="#e1ed5e" stroke-width="0.3" x1="174.80103733775053" x2="179.2010983576182" y1="140.37084112569926" y2="142.7455964860345" /><path d="M 175.68104954172406 140.8457921977663 a86.0,86.0 0 0,1 -30.038265399797805,32.042727171017184" fill="none" id="id17" stroke="none" /><text fill="#e1ed5e" style="font-size:6.75px; font-family:Arial;" text-anchor="middle"><textPath startOffset="22.206326154141568" xlink:href="#id17">May</textPath></text><path d="M 118.48025628344425 109.97397251340804 l 51.931727201055104 28.028053925916282 a80.01250797041995,80.01250797041995 0 0,0 -0.6645747109043026,1.2063961390650266 l -51.44157608069929 -28.917820583379115" fill="#47feff" stroke="none" /><path d="M 118.30583269289576 110.29060199501025 l 50.0951734381318 28.160941945180422 a78.46794804964179,78.46794804964179 0 0,0 -0.6720144677498504,1.1717138687899236 l -49.60300697422957 -29.019075659828662" fill="#45ffee" stroke="none" /><path d="M 117.94076556474637 110.91462005526583 l 41.33456592906613 25.14670183036142 a69.38287872263717,69.38287872263717 0 0,0 -0.6295186570615098,1.0149845182872592 l -40.895582632336655 -25.854482680013952" fill="#37ff7b" stroke="none" /><path d="M 117.75023020441432 111.22182372390056 l 53.25069061324299 33.665471171701654 a84.0,84.0 0 0,0 -0.7831805464917987,1.2155136003141882 l -52.663305203374144 -34.5771063719373" fill="#4dd2ff" stroke="none" /><line stroke="#e1ed5e" stroke-width="0.3" x1="143.8653032363475" x2="146.44561519142675" y1="172.8068346515853" y2="177.08958963109032" /><path d="M 144.38136562736335 173.6633856474863 a86.0,86.0 0 0,1 -40.68145358897372,12.25698825130547" fill="none" id="id18" stroke="none" /><text fill="#e1ed5e" style="font-size:6.75px; font-family:Arial;" text-anchor="middle"><textPath startOffset="21.466115282336833" xlink:href="#id18">June</textPath></text><line stroke="#e1ed5e" stroke-width="0.3" x1="102.19456741930631" x2="102.32365962044197" y1="184.97166512339345" y2="189.96999836594603" /><path d="M 102.22038585953345 185.97133177190398 a86.0,86.0 0 0,1 -42.740103519485714,-10.115201625700543" fill="none" id="id19" stroke="none" /><text fill="#e1ed5e" style="font-size:6.75px; font-family:Arial;" text-anchor="middle"><textPath startOffset="22.20632615414155" xlink:href="#id19">July</textPath></text><line stroke="#e1ed5e" stroke-width="0.3" x1="58.666819895761336" x2="56.23545636021788" y1="174.27360380694188" y2="178.64263932499728" /><path d="M 58.180547188652646 175.14741091055294 a86.0,86.0 0 0,1 -31.652253787137756,-30.449443065178592" fill="none" id="id20" stroke="none" /><text fill="#e1ed5e" style="font-size:6.75px; font-family:Arial;" text-anchor="middle"><textPath startOffset="22.20632615414155" xlink:href="#id20">August</textPath></text><line stroke="#e1ed5e" stroke-width="0.3" x1="26.63291911575756" x2="22.317208475507996" y1="142.92168965132927" y2="145.44649492493687" /><path d="M 25.769776987707644 143.4266507060508 a86.0,86.0 0 0,1 -11.730757126820373,-40.83630448921669" fill="none" id="id21" stroke="none" /><text fill="#e1ed5e" style="font-size:6.75px; font-family:Arial;" text-anchor="middle"><textPath startOffset="21.46611528233685" xlink:href="#id21">September</textPath></text><line stroke="#e1ed5e" stroke-width="0.3" x1="15.007084014347285" x2="10.007500721073583" y1="101.09737516637583" y2="101.16192664675087" /><path d="M 14.007167355692545 101.11028546245083 a86.0,86.0 0 0,1 10.666146001902534,-42.60595125391555" fill="none" id="id22" stroke="none" /><text fill="#e1ed5e" style="font-size:6.75px; font-family:Arial;" text-anchor="middle"><textPath startOffset="22.20632615414155" xlink:href="#id22">October</textPath></text><line stroke="#e1ed5e" stroke-width="0.3" x1="26.266209847984243" x2="21.928928074336255" y1="57.711370442889674" y2="55.22380399835377" /><path d="M 25.398753493254645 57.213857153982495 a86.0,86.0 0 0,1 29.58750427330803,-30.492523968695096" fill="none" id="id23" stroke="none" /><text fill="#e1ed5e" style="font-size:6.75px; font-family:Arial;" text-anchor="middle"><textPath startOffset="21.46611528233685" xlink:href="#id23">November</textPath></text><line stroke="#e1ed5e" stroke-width="0.3" x1="56.762969772571076" x2="54.21961505331055" y1="26.818313649435495" y2="22.513508569990535" /><path d="M 56.25429882871897 25.957352633546506 a86.0,86.0 0 0,1 42.265352541879196,-11.944610805530505" fill="none" id="id24" stroke="none" /><text fill="#e1ed5e" style="font-size:6.75px; font-family:Arial;" text-anchor="middle"><textPath startOffset="22.20632615414155" xlink:href="#id24">December</textPath></text></svg>